<svg viewBox="0 0 800 600" preserveAspectRatio="none" xmlns="http://www.w3.org/2000/svg">
 <g>
  <path 
  stroke-width="15" 
  stroke-dasharray="2000"
  stroke-dashoffset="0"
  class="animated-path"
  d="m217.77492,241.05647c14.2787,-2.29725 71.37748,-13.92484 150.94622,-25.26975c48.94582,-6.97872 91.74917,-12.63442 128.50827,-13.7835c42.81959,-1.33851 67.08851,1.31418 95.87125,6.89175c46.62793,9.03568 75.94217,9.36816 112.1897,20.67525c12.43285,3.87829 29.0117,10.85217 36.71665,18.378c10.8964,10.64312 21.23752,18.30933 26.51758,29.86426c5.67759,12.42491 6.11944,20.67525 6.11944,29.86426c0,9.189 1.12399,20.43079 -8.15926,34.45876c-9.52029,14.38621 -21.85405,26.16509 -48.95553,39.05326c-26.9054,12.79493 -63.09927,21.63803 -150.94616,36.75601c-71.29077,12.26878 -124.45846,13.36966 -171.34436,11.48625c-57.22391,-2.29872 -89.9225,-5.26241 -130.54808,-11.48625c-59.47961,-9.11224 -95.19446,-16.12254 -148.90641,-39.05326c-31.57254,-13.47896 -47.65344,-26.18472 -65.27404,-39.05326c-8.55731,-6.24951 -15.6647,-15.09548 -20.39814,-25.26975c-2.9937,-6.4348 -3.04637,-8.91001 -4.07963,-16.08075c-0.98022,-6.80275 -0.9373,-9.3119 0,-13.7835c1.04795,-4.9994 4.51139,-8.53228 10.19907,-13.7835c4.46178,-4.11942 13.49951,-10.66587 26.51758,-18.378c9.72173,-5.75932 20.55563,-8.75743 40.79628,-18.378c18.50894,-8.79749 30.1218,-15.66811 48.95553,-20.67525c14.03779,-3.73212 28.29899,-7.88039 40.79628,-11.48625c22.09228,-6.3743 34.6345,-7.11192 53.03516,-11.48625c10.17678,-2.41931 20.38077,-4.73563 34.67683,-6.89175c16.30002,-2.45836 32.63702,-4.5945 48.95553,-4.5945c14.2787,0 24.56946,1.6841 36.71665,0c8.34738,-1.15728 18.30566,-2.61683 28.55739,-4.5945c14.21663,-2.74253 24.47777,-2.29725 32.63702,-2.29725c10.19907,0 14.2787,0 20.39814,0c4.07963,0 8.15926,0 12.23888,0c0,0 2.03981,0 2.03981,-2.29725l2.03981,0" 
  fill="none"/>
 </g>
</svg>