<?xml version="1.0" standalone="no"?>
<!DOCTYPE svg PUBLIC "-//W3C//DTD SVG 20010904//EN"
 "http://www.w3.org/TR/2001/REC-SVG-20010904/DTD/svg10.dtd">
<svg version="1.0" xmlns="http://www.w3.org/2000/svg"
 width="450.000000pt" height="450.000000pt" viewBox="0 0 450.000000 450.000000"
 preserveAspectRatio="xMidYMid meet">
<metadata>
Created by potrace 1.10, written by Peter Selinger 2001-2011
</metadata>
<g transform="translate(0.000000,450.000000) scale(0.100000,-0.100000)"
fill="#000000" stroke="none">
<path d="M3594 4001 c-17 -10 -94 -99 -171 -197 -280 -358 -1259 -1612 -1650
-2114 -221 -283 -417 -530 -435 -549 -105 -108 -261 -64 -289 80 -4 24 -8 642
-9 1372 0 1438 3 1363 -52 1401 -12 9 -42 16 -66 16 -58 0 -98 -38 -107 -101
-3 -24 -5 -642 -3 -1374 l3 -1330 23 -64 c43 -120 129 -213 231 -252 45 -17
73 -20 147 -17 80 3 98 7 165 40 41 20 90 54 110 75 20 21 271 339 559 706
287 368 526 665 530 660 7 -8 852 -1225 1034 -1490 105 -152 136 -179 195
-167 38 8 78 44 87 79 4 15 0 43 -10 68 -9 23 -251 380 -537 792 -287 413
-546 787 -576 832 l-55 81 234 299 c286 364 724 925 761 975 53 70 45 152 -18
182 -43 21 -63 20 -101 -3z"/>
</g>
</svg>
